<svg width="130" height="34" viewBox="0 0 130 34" fill="none" xmlns="http://www.w3.org/2000/svg">
<path d="M116.643 0.0157537L116.5 0L103 1.40733V26.0129L116.5 34L130 26.0129V1.40733L116.643 0.0157537ZM128.234 25.0151L116.5 31.9573L104.766 25.0151V14.9293L116.451 21.8451L116.47 23.0984L108.454 18.3548L108.443 19.5801L116.489 24.3885L116.509 25.675L108.464 20.9174L108.454 22.1427L116.5 26.9511L124.624 22.1182V20.8929V16.909L128.243 14.7595L128.234 25.0151ZM128.234 13.4519L125.015 15.3319L123.533 16.2071L116.467 12.0201L116.456 13.2454L122.496 16.818L122.443 16.8495L122.313 16.9247L121.454 17.4166L116.467 14.4689L116.456 15.6942L120.392 18.0222L119.459 18.6314L119.438 18.6436L116.467 16.902L116.456 18.1273L118.403 19.2615L116.416 20.4483L104.797 13.5762L116.435 6.61831L128.234 13.4519ZM128.234 12.2266L116.44 5.31075L104.766 12.2196V2.9897L116.5 1.76442L128.234 2.9897V12.2266Z" fill="#D22856"/>
<path d="M7.71094 15.918C7.71094 16.9297 7.36458 17.709 6.67188 18.2559C5.98372 18.7982 4.99707 19.0693 3.71191 19.0693H2.53613V23H1.37402V13.0059H3.96484C6.46224 13.0059 7.71094 13.9766 7.71094 15.918ZM2.53613 18.0713H3.58203C4.61198 18.0713 5.3571 17.9049 5.81738 17.5723C6.27767 17.2396 6.50781 16.7064 6.50781 15.9727C6.50781 15.3118 6.29134 14.8197 5.8584 14.4961C5.42546 14.1725 4.75098 14.0107 3.83496 14.0107H2.53613V18.0713ZM14.2461 23L14.0205 21.9336H13.9658C13.5921 22.403 13.2184 22.722 12.8447 22.8906C12.4756 23.0547 12.013 23.1367 11.457 23.1367C10.7142 23.1367 10.1309 22.9453 9.70703 22.5625C9.28776 22.1797 9.07812 21.6351 9.07812 20.9287C9.07812 19.4157 10.2881 18.6227 12.708 18.5498L13.9795 18.5088V18.0439C13.9795 17.4561 13.8519 17.0231 13.5967 16.7451C13.346 16.4626 12.9427 16.3213 12.3867 16.3213C11.7624 16.3213 11.056 16.5127 10.2676 16.8955L9.91895 16.0273C10.2881 15.8268 10.6914 15.6696 11.1289 15.5557C11.571 15.4417 12.013 15.3848 12.4551 15.3848C13.3483 15.3848 14.0091 15.583 14.4375 15.9795C14.8704 16.376 15.0869 17.0117 15.0869 17.8867V23H14.2461ZM11.6826 22.2002C12.389 22.2002 12.9427 22.0065 13.3438 21.6191C13.7493 21.2318 13.9521 20.6895 13.9521 19.9922V19.3154L12.8174 19.3633C11.915 19.3952 11.2633 19.5365 10.8623 19.7871C10.4658 20.0332 10.2676 20.4183 10.2676 20.9424C10.2676 21.3525 10.3906 21.6647 10.6367 21.8789C10.8874 22.0931 11.236 22.2002 11.6826 22.2002ZM18.8604 18.6182C20.2777 18.6182 20.9863 18.2262 20.9863 17.4424C20.9863 16.7041 20.4121 16.335 19.2637 16.335C18.9128 16.335 18.5938 16.3669 18.3066 16.4307C18.0195 16.4945 17.6436 16.6221 17.1787 16.8135L16.7754 15.8906C17.5501 15.5443 18.3955 15.3711 19.3115 15.3711C20.1729 15.3711 20.8519 15.5488 21.3486 15.9043C21.8454 16.2552 22.0938 16.736 22.0938 17.3467C22.0938 18.1852 21.6266 18.7344 20.6924 18.9941V19.0488C21.2666 19.2174 21.6859 19.459 21.9502 19.7734C22.2145 20.0833 22.3467 20.473 22.3467 20.9424C22.3467 21.6351 22.0664 22.1751 21.5059 22.5625C20.9499 22.9453 20.1797 23.1367 19.1953 23.1367C18.1152 23.1367 17.2812 22.9749 16.6934 22.6514V21.6123C17.5273 22.0042 18.3704 22.2002 19.2227 22.2002C19.8789 22.2002 20.3734 22.0885 20.7061 21.8652C21.0433 21.6374 21.2119 21.3115 21.2119 20.8877C21.2119 20.0173 20.5033 19.582 19.0859 19.582H18.0469V18.6182H18.8604ZM27.6855 23.1367C27.1979 23.1367 26.7513 23.0479 26.3457 22.8701C25.9447 22.6878 25.6074 22.4098 25.334 22.0361H25.252C25.3066 22.4736 25.334 22.8883 25.334 23.2803V26.3633H24.1992V15.5078H25.1221L25.2793 16.5332H25.334C25.6257 16.123 25.9652 15.8268 26.3525 15.6445C26.7399 15.4622 27.1842 15.3711 27.6855 15.3711C28.679 15.3711 29.4447 15.7106 29.9824 16.3896C30.5247 17.0687 30.7959 18.0212 30.7959 19.2471C30.7959 20.4775 30.5202 21.4346 29.9688 22.1182C29.4219 22.7972 28.6608 23.1367 27.6855 23.1367ZM27.5215 16.335C26.7559 16.335 26.2021 16.5469 25.8604 16.9707C25.5186 17.3945 25.3431 18.069 25.334 18.9941V19.2471C25.334 20.2998 25.5094 21.054 25.8604 21.5098C26.2113 21.9609 26.7741 22.1865 27.5488 22.1865C28.196 22.1865 28.7018 21.9245 29.0664 21.4004C29.4355 20.8763 29.6201 20.154 29.6201 19.2334C29.6201 18.2992 29.4355 17.5837 29.0664 17.0869C28.7018 16.5856 28.1868 16.335 27.5215 16.335ZM37.3926 23L37.167 21.9336H37.1123C36.7386 22.403 36.3649 22.722 35.9912 22.8906C35.6221 23.0547 35.1595 23.1367 34.6035 23.1367C33.8607 23.1367 33.2773 22.9453 32.8535 22.5625C32.4342 22.1797 32.2246 21.6351 32.2246 20.9287C32.2246 19.4157 33.4346 18.6227 35.8545 18.5498L37.126 18.5088V18.0439C37.126 17.4561 36.9984 17.0231 36.7432 16.7451C36.4925 16.4626 36.0892 16.3213 35.5332 16.3213C34.9089 16.3213 34.2025 16.5127 33.4141 16.8955L33.0654 16.0273C33.4346 15.8268 33.8379 15.6696 34.2754 15.5557C34.7174 15.4417 35.1595 15.3848 35.6016 15.3848C36.4948 15.3848 37.1556 15.583 37.584 15.9795C38.0169 16.376 38.2334 17.0117 38.2334 17.8867V23H37.3926ZM34.8291 22.2002C35.5355 22.2002 36.0892 22.0065 36.4902 21.6191C36.8958 21.2318 37.0986 20.6895 37.0986 19.9922V19.3154L35.9639 19.3633C35.0615 19.3952 34.4098 19.5365 34.0088 19.7871C33.6123 20.0332 33.4141 20.4183 33.4141 20.9424C33.4141 21.3525 33.5371 21.6647 33.7832 21.8789C34.0339 22.0931 34.3825 22.2002 34.8291 22.2002ZM40.1885 18.5088C40.1885 16.8682 40.43 15.5898 40.9131 14.6738C41.3962 13.7533 42.1618 13.179 43.21 12.9512C44.5133 12.6732 45.6618 12.4476 46.6553 12.2744L46.8672 13.2725C45.2858 13.5368 44.1556 13.7464 43.4766 13.9014C42.8158 14.0518 42.319 14.4072 41.9863 14.9678C41.6582 15.5283 41.4782 16.2917 41.4463 17.2578H41.5283C41.8109 16.875 42.1755 16.5742 42.6221 16.3555C43.0687 16.1367 43.5358 16.0273 44.0234 16.0273C44.944 16.0273 45.6618 16.3258 46.1768 16.9229C46.6917 17.5199 46.9492 18.347 46.9492 19.4043C46.9492 20.5755 46.6507 21.4915 46.0537 22.1523C45.4567 22.8086 44.625 23.1367 43.5586 23.1367C42.5059 23.1367 41.681 22.7334 41.084 21.9268C40.487 21.1201 40.1885 19.9808 40.1885 18.5088ZM43.6611 22.1865C45.0511 22.1865 45.7461 21.3001 45.7461 19.5273C45.7461 17.8366 45.1149 16.9912 43.8525 16.9912C43.5062 16.9912 43.1712 17.0641 42.8477 17.21C42.5286 17.3512 42.2347 17.5404 41.9658 17.7773C41.7015 18.0143 41.4964 18.2581 41.3506 18.5088C41.3506 19.7074 41.5397 20.6211 41.918 21.25C42.2962 21.8743 42.8773 22.1865 43.6611 22.1865ZM55.3984 19.2471C55.3984 20.4684 55.0908 21.4232 54.4756 22.1113C53.8604 22.7949 53.0104 23.1367 51.9258 23.1367C51.2559 23.1367 50.6611 22.9795 50.1416 22.665C49.6221 22.3506 49.221 21.8994 48.9385 21.3115C48.6559 20.7236 48.5146 20.0355 48.5146 19.2471C48.5146 18.0257 48.82 17.0755 49.4307 16.3965C50.0413 15.7129 50.889 15.3711 51.9736 15.3711C53.0218 15.3711 53.8535 15.7197 54.4688 16.417C55.0885 17.1143 55.3984 18.0576 55.3984 19.2471ZM49.6904 19.2471C49.6904 20.2041 49.8818 20.9333 50.2646 21.4346C50.6475 21.9359 51.2103 22.1865 51.9531 22.1865C52.696 22.1865 53.2588 21.9382 53.6416 21.4414C54.029 20.9401 54.2227 20.2087 54.2227 19.2471C54.2227 18.2946 54.029 17.5723 53.6416 17.0801C53.2588 16.5833 52.6914 16.335 51.9395 16.335C51.1966 16.335 50.6361 16.5788 50.2578 17.0664C49.8796 17.554 49.6904 18.2809 49.6904 19.2471ZM62.4463 16.4785H60.0127V23H58.8779V16.4785H56.4717V15.5078H62.4463V16.4785ZM68.5371 23L68.3115 21.9336H68.2568C67.8831 22.403 67.5094 22.722 67.1357 22.8906C66.7666 23.0547 66.304 23.1367 65.748 23.1367C65.0052 23.1367 64.4219 22.9453 63.998 22.5625C63.5788 22.1797 63.3691 21.6351 63.3691 20.9287C63.3691 19.4157 64.5791 18.6227 66.999 18.5498L68.2705 18.5088V18.0439C68.2705 17.4561 68.1429 17.0231 67.8877 16.7451C67.637 16.4626 67.2337 16.3213 66.6777 16.3213C66.0534 16.3213 65.347 16.5127 64.5586 16.8955L64.21 16.0273C64.5791 15.8268 64.9824 15.6696 65.4199 15.5557C65.862 15.4417 66.304 15.3848 66.7461 15.3848C67.6393 15.3848 68.3001 15.583 68.7285 15.9795C69.1615 16.376 69.3779 17.0117 69.3779 17.8867V23H68.5371ZM65.9736 22.2002C66.68 22.2002 67.2337 22.0065 67.6348 21.6191C68.0404 21.2318 68.2432 20.6895 68.2432 19.9922V19.3154L67.1084 19.3633C66.2061 19.3952 65.5544 19.5365 65.1533 19.7871C64.7568 20.0332 64.5586 20.4183 64.5586 20.9424C64.5586 21.3525 64.6816 21.6647 64.9277 21.8789C65.1784 22.0931 65.527 22.2002 65.9736 22.2002ZM72.8574 15.5078V18.6455H77.0547V15.5078H78.1895V23H77.0547V19.623H72.8574V23H71.7227V15.5078H72.8574ZM87.0625 19.2471C87.0625 20.4684 86.7549 21.4232 86.1396 22.1113C85.5244 22.7949 84.6745 23.1367 83.5898 23.1367C82.9199 23.1367 82.3252 22.9795 81.8057 22.665C81.2861 22.3506 80.8851 21.8994 80.6025 21.3115C80.32 20.7236 80.1787 20.0355 80.1787 19.2471C80.1787 18.0257 80.484 17.0755 81.0947 16.3965C81.7054 15.7129 82.5531 15.3711 83.6377 15.3711C84.6859 15.3711 85.5176 15.7197 86.1328 16.417C86.7526 17.1143 87.0625 18.0576 87.0625 19.2471ZM81.3545 19.2471C81.3545 20.2041 81.5459 20.9333 81.9287 21.4346C82.3115 21.9359 82.8743 22.1865 83.6172 22.1865C84.36 22.1865 84.9229 21.9382 85.3057 21.4414C85.693 20.9401 85.8867 20.2087 85.8867 19.2471C85.8867 18.2946 85.693 17.5723 85.3057 17.0801C84.9229 16.5833 84.3555 16.335 83.6035 16.335C82.8607 16.335 82.3001 16.5788 81.9219 17.0664C81.5436 17.554 81.3545 18.2809 81.3545 19.2471Z" fill="#283645"/>
</svg>
